<?xml version="1.0" encoding="iso-8859-1"?>
<!-- Generator: Adobe Illustrator 19.0.0, SVG Export Plug-In . SVG Version: 6.00 Build 0)  -->
<svg version="1.1" id="Capa_1" xmlns="http://www.w3.org/2000/svg" xmlns:xlink="http://www.w3.org/1999/xlink" x="0px" y="0px"
	 viewBox="0 0 56 56" style="enable-background:new 0 0 56 56;" xml:space="preserve">
<circle style="fill:#556080;" cx="28" cy="28" r="28"/>
<path style="fill:#8697CB;" d="M51,19c0-2.945-0.406-5.793-1.15-8.501C44.718,4.101,36.84,0,28,0C12.536,0,0,12.536,0,28
	c0,8.84,4.101,16.718,10.499,21.85C13.207,50.594,16.055,51,19,51C36.673,51,51,36.673,51,19z"/>
<path style="fill:#955BA5;" d="M0,28c0,3.81,0.764,7.441,2.143,10.752C4.786,39.562,7.591,40,10.5,40C26.24,40,39,27.24,39,11.5
	c0-3.497-0.633-6.845-1.785-9.94C34.328,0.553,31.23,0,28,0C12.536,0,0,12.536,0,28z"/>
<path style="fill:#CC66A1;" d="M1.571,18.75c0.251,0.373,0.526,0.732,0.85,1.056c3.71,3.71,10.833,2.602,15.91-2.475
	c5.077-5.077,6.185-12.2,2.475-15.91c-0.132-0.132-0.279-0.245-0.419-0.365C11.599,3.535,4.567,10.191,1.571,18.75z"/>
</svg>
